<?xml version="1.0" encoding="UTF-8" standalone="no"?>
<!DOCTYPE svg PUBLIC "-//W3C//DTD SVG 1.1//EN"
 "http://www.w3.org/Graphics/SVG/1.1/DTD/svg11.dtd">
<!-- Generated by graphviz version 2.43.0 (0)
 -->
<!-- Title: %3 Pages: 1 -->
<svg width="276pt" height="413pt"
 viewBox="0.00 0.00 276.00 413.00" xmlns="http://www.w3.org/2000/svg" xmlns:xlink="http://www.w3.org/1999/xlink">
<g id="graph0" class="graph" transform="scale(1 1) rotate(0) translate(4 409)">
<title>%3</title>
<polygon fill="white" stroke="transparent" points="-4,4 -4,-409 272,-409 272,4 -4,4"/>
<!-- 125444584829824 -->
<g id="node1" class="node">
<title>125444584829824</title>
<polygon fill="#caff70" stroke="black" points="165.5,-31 111.5,-31 111.5,0 165.5,0 165.5,-31"/>
<text text-anchor="middle" x="138.5" y="-7" font-family="monospace" font-size="10.00"> (1)</text>
</g>
<!-- 125444584279152 -->
<g id="node2" class="node">
<title>125444584279152</title>
<polygon fill="lightgrey" stroke="black" points="183,-108 94,-108 94,-67 183,-67 183,-108"/>
<text text-anchor="middle" x="138.5" y="-96" font-family="monospace" font-size="10.00">AddBackward0</text>
<text text-anchor="middle" x="138.5" y="-85" font-family="monospace" font-size="10.00">&#45;&#45;&#45;&#45;&#45;&#45;&#45;&#45;&#45;&#45;&#45;&#45;</text>
<text text-anchor="middle" x="138.5" y="-74" font-family="monospace" font-size="10.00">alpha: 1</text>
</g>
<!-- 125444584279152&#45;&gt;125444584829824 -->
<g id="edge10" class="edge">
<title>125444584279152&#45;&gt;125444584829824</title>
<path fill="none" stroke="black" d="M138.5,-66.63C138.5,-58.76 138.5,-49.63 138.5,-41.33"/>
<polygon fill="black" stroke="black" points="142,-41.08 138.5,-31.08 135,-41.08 142,-41.08"/>
</g>
<!-- 125444584283232 -->
<g id="node3" class="node">
<title>125444584283232</title>
<polygon fill="lightgrey" stroke="black" points="143,-284 0,-284 0,-232 143,-232 143,-284"/>
<text text-anchor="middle" x="71.5" y="-272" font-family="monospace" font-size="10.00">MulBackward0</text>
<text text-anchor="middle" x="71.5" y="-261" font-family="monospace" font-size="10.00">&#45;&#45;&#45;&#45;&#45;&#45;&#45;&#45;&#45;&#45;&#45;&#45;&#45;&#45;&#45;&#45;&#45;&#45;&#45;&#45;&#45;</text>
<text text-anchor="middle" x="71.5" y="-250" font-family="monospace" font-size="10.00">other: [saved tensor]</text>
<text text-anchor="middle" x="71.5" y="-239" font-family="monospace" font-size="10.00">self : [saved tensor]</text>
</g>
<!-- 125444584283232&#45;&gt;125444584279152 -->
<g id="edge1" class="edge">
<title>125444584283232&#45;&gt;125444584279152</title>
<path fill="none" stroke="black" d="M81.13,-231.81C89.94,-208.86 103.41,-174.08 115.5,-144 118.94,-135.44 122.74,-126.18 126.25,-117.71"/>
<polygon fill="black" stroke="black" points="129.59,-118.81 130.2,-108.24 123.13,-116.12 129.59,-118.81"/>
</g>
<!-- 125444584278384 -->
<g id="node4" class="node">
<title>125444584278384</title>
<polygon fill="lightgrey" stroke="black" points="129,-339 28,-339 28,-320 129,-320 129,-339"/>
<text text-anchor="middle" x="78.5" y="-327" font-family="monospace" font-size="10.00">AccumulateGrad</text>
</g>
<!-- 125444584278384&#45;&gt;125444584283232 -->
<g id="edge2" class="edge">
<title>125444584278384&#45;&gt;125444584283232</title>
<path fill="none" stroke="black" d="M77.64,-319.98C76.98,-313.36 76,-303.71 75.03,-294.03"/>
<polygon fill="black" stroke="black" points="78.51,-293.65 74.02,-284.05 71.54,-294.35 78.51,-293.65"/>
</g>
<!-- 125444584286304 -->
<g id="node9" class="node">
<title>125444584286304</title>
<polygon fill="lightgrey" stroke="black" points="250,-278.5 161,-278.5 161,-237.5 250,-237.5 250,-278.5"/>
<text text-anchor="middle" x="205.5" y="-266.5" font-family="monospace" font-size="10.00">AddBackward0</text>
<text text-anchor="middle" x="205.5" y="-255.5" font-family="monospace" font-size="10.00">&#45;&#45;&#45;&#45;&#45;&#45;&#45;&#45;&#45;&#45;&#45;&#45;</text>
<text text-anchor="middle" x="205.5" y="-244.5" font-family="monospace" font-size="10.00">alpha: 1</text>
</g>
<!-- 125444584278384&#45;&gt;125444584286304 -->
<g id="edge8" class="edge">
<title>125444584278384&#45;&gt;125444584286304</title>
<path fill="none" stroke="black" d="M94.07,-319.98C110.62,-310.92 137.55,-296.18 160.79,-283.47"/>
<polygon fill="black" stroke="black" points="162.73,-286.4 169.82,-278.53 159.36,-280.26 162.73,-286.4"/>
</g>
<!-- 125444584832384 -->
<g id="node5" class="node">
<title>125444584832384</title>
<polygon fill="lightblue" stroke="black" points="105.5,-405 51.5,-405 51.5,-375 105.5,-375 105.5,-405"/>
<text text-anchor="middle" x="78.5" y="-393" font-family="monospace" font-size="10.00">叶子x</text>
<text text-anchor="middle" x="78.5" y="-382" font-family="monospace" font-size="10.00"> (1)</text>
</g>
<!-- 125444584832384&#45;&gt;125444584278384 -->
<g id="edge3" class="edge">
<title>125444584832384&#45;&gt;125444584278384</title>
<path fill="none" stroke="black" d="M78.5,-374.84C78.5,-367.21 78.5,-357.7 78.5,-349.45"/>
<polygon fill="black" stroke="black" points="82,-349.27 78.5,-339.27 75,-349.27 82,-349.27"/>
</g>
<!-- 125444584277952 -->
<g id="node6" class="node">
<title>125444584277952</title>
<polygon fill="lightgrey" stroke="black" points="252,-339 151,-339 151,-320 252,-320 252,-339"/>
<text text-anchor="middle" x="201.5" y="-327" font-family="monospace" font-size="10.00">AccumulateGrad</text>
</g>
<!-- 125444584277952&#45;&gt;125444584283232 -->
<g id="edge4" class="edge">
<title>125444584277952&#45;&gt;125444584283232</title>
<path fill="none" stroke="black" d="M185.56,-319.98C170.97,-312.18 148.48,-300.16 127.32,-288.84"/>
<polygon fill="black" stroke="black" points="128.83,-285.68 118.36,-284.05 125.53,-291.86 128.83,-285.68"/>
</g>
<!-- 125444584277952&#45;&gt;125444584286304 -->
<g id="edge9" class="edge">
<title>125444584277952&#45;&gt;125444584286304</title>
<path fill="none" stroke="black" d="M201.99,-319.98C202.44,-312.15 203.14,-300.08 203.79,-288.74"/>
<polygon fill="black" stroke="black" points="207.29,-288.86 204.37,-278.67 200.3,-288.45 207.29,-288.86"/>
</g>
<!-- 125444584817904 -->
<g id="node7" class="node">
<title>125444584817904</title>
<polygon fill="lightblue" stroke="black" points="228.5,-405 174.5,-405 174.5,-375 228.5,-375 228.5,-405"/>
<text text-anchor="middle" x="201.5" y="-393" font-family="monospace" font-size="10.00">叶子y</text>
<text text-anchor="middle" x="201.5" y="-382" font-family="monospace" font-size="10.00"> (1)</text>
</g>
<!-- 125444584817904&#45;&gt;125444584277952 -->
<g id="edge5" class="edge">
<title>125444584817904&#45;&gt;125444584277952</title>
<path fill="none" stroke="black" d="M201.5,-374.84C201.5,-367.21 201.5,-357.7 201.5,-349.45"/>
<polygon fill="black" stroke="black" points="205,-349.27 201.5,-339.27 198,-349.27 205,-349.27"/>
</g>
<!-- 125444584278624 -->
<g id="node8" class="node">
<title>125444584278624</title>
<polygon fill="lightgrey" stroke="black" points="268,-196 125,-196 125,-144 268,-144 268,-196"/>
<text text-anchor="middle" x="196.5" y="-184" font-family="monospace" font-size="10.00">MulBackward0</text>
<text text-anchor="middle" x="196.5" y="-173" font-family="monospace" font-size="10.00">&#45;&#45;&#45;&#45;&#45;&#45;&#45;&#45;&#45;&#45;&#45;&#45;&#45;&#45;&#45;&#45;&#45;&#45;&#45;&#45;&#45;</text>
<text text-anchor="middle" x="196.5" y="-162" font-family="monospace" font-size="10.00">other: [saved tensor]</text>
<text text-anchor="middle" x="196.5" y="-151" font-family="monospace" font-size="10.00">self : &#160;&#160;&#160;&#160;&#160;&#160;&#160;&#160;&#160;&#160;None</text>
</g>
<!-- 125444584278624&#45;&gt;125444584279152 -->
<g id="edge6" class="edge">
<title>125444584278624&#45;&gt;125444584279152</title>
<path fill="none" stroke="black" d="M178.47,-143.97C172.17,-135.23 165.06,-125.36 158.6,-116.4"/>
<polygon fill="black" stroke="black" points="161.34,-114.21 152.65,-108.15 155.66,-118.31 161.34,-114.21"/>
</g>
<!-- 125444584286304&#45;&gt;125444584278624 -->
<g id="edge7" class="edge">
<title>125444584286304&#45;&gt;125444584278624</title>
<path fill="none" stroke="black" d="M203.46,-237.49C202.5,-228.34 201.33,-217.15 200.22,-206.58"/>
<polygon fill="black" stroke="black" points="203.67,-205.9 199.15,-196.32 196.71,-206.63 203.67,-205.9"/>
</g>
</g>
</svg>
